<?xml version="1.0" standalone="no"?>
<!DOCTYPE svg PUBLIC "-//W3C//DTD SVG 20010904//EN"
 "http://www.w3.org/TR/2001/REC-SVG-20010904/DTD/svg10.dtd">
<svg version="1.0" xmlns="http://www.w3.org/2000/svg"
 width="320.000000pt" height="320.000000pt" viewBox="0 0 320.000000 320.000000"
 preserveAspectRatio="xMidYMid meet">
<metadata>
Created by potrace 1.11, written by Peter Selinger 2001-2013
</metadata>
<g transform="translate(0.000000,320.000000) scale(0.100000,-0.100000)"
fill="#000000" stroke="none">
<path d="M0 1600 l0 -1600 1600 0 1600 0 0 1600 0 1600 -1600 0 -1600 0 0
-1600z m1557 1508 c6 -8 13 -125 16 -270 6 -271 3 -294 -39 -286 -17 3 -20 16
-27 138 -5 74 -9 136 -10 136 -1 1 -47 -4 -102 -13 -479 -70 -873 -402 -1019
-858 -47 -148 -59 -243 -53 -425 4 -136 10 -181 31 -257 37 -134 80 -240 134
-330 170 -283 426 -486 728 -578 107 -33 221 -54 293 -55 l54 0 -6 126 c-8
151 5 191 47 148 14 -13 16 -50 16 -244 0 -201 -2 -229 -16 -234 -30 -12 -44
13 -44 79 l0 62 -78 6 c-527 41 -997 410 -1161 913 -54 164 -66 243 -66 424 1
227 40 394 141 590 195 382 559 641 988 705 57 8 106 15 110 15 3 0 6 44 6 98
0 96 8 122 36 122 6 0 16 -6 21 -12z m808 -138 c0 -14 -35 -86 -77 -160 -42
-74 -130 -229 -195 -345 -104 -185 -122 -210 -143 -210 -50 0 -35 36 128 327
87 156 175 314 196 351 33 61 41 68 64 65 21 -2 27 -8 27 -28z m-486 -124 c9
-11 -8 -93 -79 -373 -114 -450 -106 -423 -136 -423 -14 0 -27 6 -30 13 -4 12
180 769 192 789 8 13 40 9 53 -6z m-427 -335 c35 -32 76 -69 92 -83 l29 -25 1
-189 1 -189 -55 -6 c-285 -31 -481 -293 -426 -572 41 -209 206 -366 417 -399
l76 -11 7 -105 c3 -58 6 -145 6 -194 l0 -90 -44 39 c-24 21 -78 69 -121 107
-69 63 -78 69 -103 60 -26 -9 -28 -15 -40 -111 l-13 -101 47 -71 c26 -39 44
-74 41 -77 -3 -4 -47 4 -96 17 -88 23 -93 26 -191 112 -87 77 -100 93 -100
120 0 18 -7 124 -15 237 -8 113 -15 208 -15 212 0 4 -11 15 -25 24 -24 16 -26
15 -108 -49 l-84 -66 -18 -91 c-10 -50 -19 -89 -21 -87 -2 2 -28 42 -57 89
l-54 85 -11 132 -12 131 165 185 c149 167 165 188 159 213 -4 15 -8 28 -9 29
-1 2 -37 7 -81 13 -43 6 -91 13 -105 16 -19 3 -45 -8 -103 -46 -43 -28 -80
-49 -83 -46 -8 8 36 198 50 215 7 9 22 27 35 41 13 14 46 53 74 87 l50 61 92
6 c50 3 167 9 259 14 168 7 168 7 184 33 16 26 15 28 -54 115 -68 87 -71 89
-129 102 -32 7 -76 18 -98 23 l-39 10 49 33 c125 84 134 87 266 95 68 5 129 9
135 10 7 0 41 -25 75 -58z m1043 -27 c0 -25 -544 -584 -568 -584 -21 0 -40 26
-30 43 4 8 129 139 277 291 230 237 273 277 295 274 19 -2 26 -9 26 -24z m479
-116 c8 -14 6 -22 -9 -37 -37 -36 -679 -402 -700 -399 -14 2 -20 11 -20 28 0
22 24 39 185 134 102 60 255 151 340 202 85 51 164 92 174 91 10 -1 24 -10 30
-19z m-146 -470 c14 -14 15 -28 4 -45 -4 -6 -59 -25 -122 -42 -63 -16 -180
-48 -260 -70 -375 -105 -382 -106 -396 -86 -8 11 -10 24 -5 33 6 10 140 52
377 118 203 56 374 103 380 103 5 1 15 -4 22 -11z m-1200 -23 c121 -28 231
-127 267 -241 9 -29 16 -85 16 -125 0 -64 -5 -83 -36 -145 -66 -134 -170 -198
-325 -199 -72 0 -94 4 -142 27 -232 108 -294 390 -126 574 56 60 106 91 183
110 68 17 85 17 163 -1z m1536 -318 c12 -9 16 -20 12 -34 -6 -20 -16 -20 -399
-25 -341 -5 -394 -4 -409 9 -13 12 -15 20 -7 34 9 17 29 19 307 22 163 1 338
3 388 5 62 1 96 -2 108 -11z m-820 -213 c138 -36 294 -77 346 -90 52 -14 105
-29 118 -34 25 -11 29 -32 7 -50 -15 -13 -76 2 -585 136 -167 44 -202 62 -179
91 6 7 18 13 27 13 8 0 128 -30 266 -66z m-130 -447 c146 -143 266 -265 266
-273 0 -19 -27 -29 -49 -18 -35 17 -531 507 -531 525 0 18 16 29 37 26 6 -1
131 -118 277 -260z m311 100 c447 -251 434 -242 403 -274 -18 -17 -22 -15
-210 91 -62 35 -195 109 -295 166 -155 86 -183 106 -183 125 0 25 16 35 40 27
8 -3 119 -64 245 -135z m-758 -207 c131 -451 138 -479 122 -496 -29 -28 -46 8
-114 241 -36 127 -80 278 -97 337 -33 114 -32 141 4 136 21 -3 29 -25 85 -218z
m394 -267 c100 -170 183 -317 183 -328 1 -15 -5 -20 -23 -20 -21 0 -46 36
-188 270 -90 149 -173 289 -185 311 -23 46 -19 74 10 74 15 0 65 -76 203 -307z"/>
<path d="M1190 2483 c-58 -6 -81 -13 -75 -23 3 -6 16 -10 28 -10 20 -1 77 -69
185 -220 12 -17 10 -27 -19 -79 -27 -52 -36 -61 -60 -62 -16 -1 -32 -2 -36 -3
-5 -1 -96 -6 -203 -10 -272 -11 -254 -6 -339 -104 -72 -85 -94 -127 -48 -98
19 13 38 13 161 -5 77 -10 141 -20 142 -22 2 -2 11 -33 21 -69 l17 -65 -168
-188 -168 -188 7 -101 c7 -109 12 -136 25 -136 4 0 11 10 14 22 7 23 185 167
216 175 10 3 40 -9 68 -26 58 -37 55 -20 72 -326 6 -99 13 -189 16 -200 5 -20
148 -150 178 -161 19 -7 21 7 4 24 -9 9 -8 41 1 139 8 70 16 133 18 140 3 7
21 17 42 22 95 24 88 25 149 -32 99 -92 92 -93 92 11 l0 90 -72 17 c-302 69
-499 385 -423 679 52 198 225 366 420 406 l56 12 -2 138 -1 138 -68 61 -69 61
-73 -2 c-40 0 -89 -3 -108 -5z"/>
<path d="M1453 1801 c-209 -72 -268 -334 -110 -489 94 -92 222 -112 341 -53
234 115 210 447 -37 540 -70 25 -125 26 -194 2z"/>
</g>
</svg>
